<?xml version="1.0" encoding="utf-8"?>
<!-- Generator: Adobe Illustrator 27.6.1, SVG Export Plug-In . SVG Version: 6.00 Build 0)  -->
<svg version="1.1" id="Layer_1" xmlns:serif="http://www.serif.com/"
	 xmlns="http://www.w3.org/2000/svg" xmlns:xlink="http://www.w3.org/1999/xlink" x="0px" y="0px" viewBox="0 0 1572.6 348.8"
	 style="enable-background:new 0 0 1572.6 348.8;" xml:space="preserve">
<style type="text/css">
	.st0{fill:#FBB315;}
	.st1{fill-rule:evenodd;clip-rule:evenodd;fill:#FBB315;}
</style>
<g transform="matrix(4.16667,0,0,4.16667,572.386,1094.84)">
	<path class="st0" d="M-137.4-262.8h18.1v61.5c0,4.5,1.9,6.8,5.8,6.8c0.9,0,1.9-0.1,3-0.4s2.1-0.7,3-1.2l2.4,13.6
		c-2.3,1.1-4.9,1.9-7.8,2.5c-2.9,0.6-5.7,0.9-8.3,0.9c-5.2,0-9.2-1.4-12-4.1s-4.2-6.6-4.2-11.8V-262.8z"/>
</g>
<g transform="matrix(4.16667,0,0,4.16667,813.068,1094.84)">
	<path class="st0" d="M-89-262.8h18.1v61.5c0,4.5,1.9,6.8,5.8,6.8c0.9,0,1.9-0.1,3-0.4s2.1-0.7,3-1.2l2.4,13.6
		c-2.3,1.1-4.9,1.9-7.8,2.5c-2.9,0.6-5.7,0.9-8.3,0.9c-5.2,0-9.2-1.4-12-4.1S-89-189.8-89-195V-262.8z"/>
</g>
<g transform="matrix(4.16667,0,0,4.16667,669.971,961.847)">
	<path class="st0" d="M-117.8-157c1.3,1.4,2.8,2.6,4.4,3.7l7.7-16.9c-1.2-2.4-1.8-5.2-1.8-8.4c0-2.3,0.3-4.4,1-6.3
		c0.7-1.9,1.6-3.6,2.8-4.9c1.2-1.4,2.6-2.4,4.2-3.2c1.5-0.7,3-1,4.7-1.1L-88-209c-2-0.3-4-0.5-6.2-0.5c-5.1,0-9.6,0.9-13.5,2.5
		c-4,1.7-7.3,4-10,6.8s-4.8,6.1-6.2,9.9c-1.4,3.7-2.1,7.6-2.1,11.7c0,4.1,0.7,8,2.1,11.7C-122.6-163.1-120.5-159.9-117.8-157"/>
</g>
<g transform="matrix(4.16667,0,0,4.16667,776.493,1084.92)">
	<path class="st0" d="M-96.3-229.7c-1.3-1.4-2.8-2.6-4.4-3.7l-7.7,16.9c1.2,2.3,1.8,5.1,1.8,8.3c0,2.3-0.3,4.4-1,6.3
		c-0.7,1.9-1.6,3.6-2.8,4.9c-1.2,1.4-2.5,2.4-4.1,3.2c-1.4,0.7-3,1-4.7,1.1l-6.8,14.8c2,0.3,4.1,0.5,6.2,0.5c5.1,0,9.6-0.8,13.5-2.5
		c4-1.7,7.3-3.9,10-6.7s4.8-6.1,6.2-9.9c1.4-3.7,2.1-7.6,2.1-11.7c0-4.1-0.7-8-2.2-11.7C-91.5-223.6-93.6-226.9-96.3-229.7"/>
</g>
<g transform="matrix(4.16667,0,0,4.16667,911.117,962.197)">
	<path class="st0" d="M-69.2-157c1.3,1.4,2.8,2.6,4.4,3.7l7.7-16.9c-1.2-2.4-1.8-5.2-1.8-8.4c0-2.3,0.3-4.4,1-6.3
		c0.7-1.9,1.6-3.6,2.8-4.9c1.2-1.4,2.6-2.4,4.2-3.2c1.5-0.7,3-1,4.7-1.1l6.8-14.9c-2-0.3-4-0.5-6.2-0.5c-5.1,0-9.6,0.9-13.5,2.5
		c-4,1.7-7.3,4-10,6.8c-2.7,2.8-4.8,6.1-6.2,9.9c-1.4,3.7-2.1,7.6-2.1,11.7c0,4.1,0.7,8,2.1,11.7C-74-163.1-71.9-159.8-69.2-157"/>
</g>
<g transform="matrix(4.16667,0,0,4.16667,1017.64,1085.27)">
	<path class="st0" d="M-47.8-229.7c-1.3-1.4-2.8-2.6-4.4-3.7l-7.7,16.9c1.2,2.3,1.8,5.1,1.8,8.3c0,2.3-0.3,4.4-1,6.3
		c-0.7,1.9-1.6,3.6-2.8,4.9s-2.5,2.4-4.1,3.2c-1.4,0.7-3,1-4.7,1.1l-6.8,14.8c2,0.3,4.1,0.5,6.2,0.5c5.1,0,9.6-0.8,13.5-2.5
		s7.3-3.9,10-6.7s4.8-6.1,6.2-9.9c1.4-3.7,2.1-7.6,2.1-11.7c0-4.1-0.7-8-2.2-11.7C-43-223.5-45-226.8-47.8-229.7"/>
</g>
<g transform="matrix(4.16667,0,0,4.16667,1085.58,1024.77)">
	<path class="st0" d="M-34.1-193.3c0-4.1,0.7-8,2.2-11.7c1.4-3.7,3.5-7,6.2-9.9c2.7-2.8,6.1-5.1,10-6.7c4-1.7,8.5-2.5,13.5-2.5
		c6.9,0,12.6,1.5,17.3,4.4s8.2,6.7,10.5,11.4L8.1-203c-2.3-3.8-5.8-5.7-10.3-5.7c-3.8,0-6.9,1.4-9.5,4.2c-2.5,2.8-3.8,6.5-3.8,11.2
		c0,2.3,0.3,4.5,1,6.4c0.7,1.9,1.6,3.6,2.8,4.9c1.2,1.4,2.6,2.4,4.3,3.2c1.6,0.8,3.3,1.1,5.2,1.1c2.3,0,4.3-0.5,6.2-1.6
		c1.9-1.1,3.3-2.5,4.2-4.2l17.7,5.4c-2.2,4.6-5.7,8.4-10.5,11.3c-4.8,3-10.7,4.5-17.5,4.5c-5,0-9.5-0.8-13.4-2.5
		c-4-1.7-7.3-4-10.1-6.8s-4.9-6.1-6.3-9.9C-33.4-185.3-34.1-189.2-34.1-193.3"/>
</g>
<g transform="matrix(4.16667,0,0,4.16667,1250.61,963.383)">
	<path class="st0" d="M-0.8-156.7c1.3,1.4,2.8,2.6,4.4,3.7l7.7-16.9c-1.2-2.4-1.8-5.2-1.8-8.4c0-2.3,0.3-4.4,1-6.3
		c0.7-1.9,1.6-3.6,2.8-4.9c1.2-1.4,2.6-2.4,4.2-3.2c1.5-0.7,3-1,4.7-1.1l6.8-14.9c-2-0.3-4-0.5-6.2-0.5c-5.1,0-9.6,0.9-13.5,2.6
		s-7.3,4-10,6.8s-4.8,6.1-6.2,9.9c-1.4,3.7-2.1,7.6-2.1,11.7c0,4.1,0.7,8,2.1,11.7C-5.6-162.8-3.6-159.5-0.8-156.7"/>
</g>
<g transform="matrix(4.16667,0,0,4.16667,1357.13,1086.46)">
	<path class="st0" d="M20.6-229.4c-1.3-1.4-2.8-2.6-4.4-3.7l-7.7,16.9c1.2,2.3,1.8,5.1,1.8,8.3c0,2.3-0.3,4.4-1,6.3
		c-0.7,1.9-1.6,3.6-2.8,4.9c-1.2,1.4-2.5,2.4-4.1,3.2c-1.4,0.7-3,1-4.7,1.1l-6.8,14.8c2,0.3,4.1,0.5,6.2,0.5c5.1,0,9.6-0.8,13.5-2.5
		s7.3-3.9,10-6.7s4.8-6.1,6.2-9.9c1.4-3.7,2.1-7.6,2.1-11.7c0-4.1-0.7-8-2.2-11.7C25.4-223.3,23.3-226.6,20.6-229.4"/>
</g>
<g transform="matrix(4.16667,0,0,4.16667,565.031,459.304)">
	<rect x="227" y="-46.2" class="st1" width="14.8" height="18.5"/>
</g>
</svg>
